<?xml version="1.0" encoding="UTF-8"?>
<svg xmlns="http://www.w3.org/2000/svg" version="1.1" viewBox="0 0 1920 1080">
  <!-- Generator: Adobe Illustrator 29.6.1, SVG Export Plug-In . SVG Version: 2.1.1 Build 9)  -->
  <defs>
    <style>
      .st0 {
        font-family: FreestyleScript-Regular, 'Freestyle Script';
        font-size: 100px;
      }

      .st1 {
        fill: #282018;
      }

      .st2 {
        fill: #00a9b3;
      }

      .st3 {
        display: none;
      }

      .st4 {
        fill: #f9f8f8;
      }
    </style>
  </defs>
  <g id="Capa_1">
    <g class="st3">
      <rect class="st2" y="549.2" width="1923.68" height="530.8"/>
      <rect class="st4" y="3.53" width="1917.44" height="546.69"/>
      <rect class="st4" x="1980" width="1917.44" height="561.45"/>
      <rect class="st2" x="1980" y="549.2" width="1920" height="530.8"/>
      <g>
        <g>
          <g>
            <path class="st2" d="M448.57,421.89l-8.54,11.41c-6.35,6.73-18.21,6.88-21.39-2.98-6.4-19.81,16.25-64.7,41.82-51.13l3.13,3.85c.88-2.98,2.56-6.33,5.95-6.74,6.31-.77,9.46,2.07,8.44,8.43-2.04,12.72-14.2,29.37-15.8,42.72-.39,3.28-.44,6.33,3.23,3.75s11.84-12.71,13.96-16.6c2.46-4.53,3.76-10.6,5.74-15.5,20.73-51.26,49.71-98.83,75.88-147.36.15-1.46-.65-.42-1.04,0-5.12,5.41-11.95,16.16-20.74,14.54-5.27-.97-8.13-4.74-8.73-9.92-1.69-14.57,6.71-34.18,13.66-46.83,2.85-5.19,4.78-11.8,12.05-9.43s4.45,9.88,2.6,15.27c-3.36,9.75-8.46,19.32-11.79,29.12-1.22,3.59-2.79,7.29-2.58,11.14.91.95,6.08-3.82,7-4.65,7.12-6.35,16-17.68,20.54-26.08,2.48-4.58,8.26-20.05,11.28-22.38s9.48-.46,10.67,3.36-2.07,11.99-3.37,15.85c-16.94,50.13-48.17,99.78-71.44,147.65-7.24,14.89-19.76,38.18-23.53,53.64-.62,2.56-2.24,8.38,2.35,7.57,4.98-.88,22.47-15.75,26.04-20.11,3.25-3.97,3.83-8.45,6.2-12.96,6.43-12.26,19.82-22.76,34.12-22.58,18.45.23,23.43,15.63,9.4,27.24-7.51,6.22-18.28,9.15-27.96,8.81-1.16-.04-2.72-1.15-3.64,0-.36.45-.94,2.75-1.13,3.53-1.63,6.55-2.22,18.18,7.37,17.75,9.93-.45,33.99-18.9,38.86-27.47,4.54-7.98,7.32-18.52,11.79-26.54,2.4-4.31,5.38-4.91,9.9-2.95,6.51,2.82,2.4,9.44,1.23,14.07-.17.68-.98.99.37.89,6.3-6.24,15.18-16.48,24.89-16.08,4,.16,7.9,2.9,8.49,7.07,1.9,13.42-13.05,32.49-18.46,44.64-.51,1.14-2.17,3.89-.93,4.76,2.32.07,15.39-15.72,17.27-18.46,3.76-5.46,4.42-11.02,7.59-16.75,7.27-13.16,21.57-22.65,37.07-18.91,14.98,3.62,13.67,17.82,4.46,27.03-3.63,3.63-11.48,7.96-16.15,3.82s3.93-8.66,6.5-11.66c3.1-3.61,9.18-13.73-.52-10.36-9.58,3.33-18.9,18.24-20.91,27.78-2.36,11.16-.04,21.54,13.65,18.31,10.45-2.46,25.89-16.01,31.17-25.29,4.12-7.25,8.62-21.99,13.9-27.53,4.66-4.89,14.21-.57,12.9,6.17-4.08,12.4-11.21,24.14-15.36,36.43-1.05,3.12-2.71,6.63-1.94,9.97,4-.01,14.91-12.67,17.56-16.11,8.46-11.02,10.47-26.17,21.9-34.56,7.65-5.61,20.94-5.79,26.33,3.01.93-.01,2.19-7.74,8.8-7.25,3.23.24,7.5,3.24,6.9,6.87-4.54,12.77-11.03,25.05-14.77,38.09-.95,3.29-2.33,7.17-1.18,10.47,9.76-7.26,16.32-18.21,23.88-27.65,1.74-1.79,3.89-1.37,6.17-1.35.08,1.06.02,1.98-.39,2.98-1.83,4.42-12.17,18.03-15.68,22.13-5.12,5.97-13.3,14.87-21.95,11.1-2.49-1.08-6.01-5.91-6.01-8.5v-9.06c-6.17,6.82-13.52,20.8-24.71,16.16-5.59-2.32-6.38-8.83-6.63-14.09-6.88,7.8-16.17,19.14-28,15.05-7.16-2.47-6.33-9.95-6.19-16.08-10.77,10.14-25.26,20.54-40.9,16.02-8.55-2.47-14.24-9.71-14.53-18.61-6.99,8.35-18.23,24.59-31.02,18.06-7.76-3.97-1.85-18.08.62-24.11,3.11-7.58,7.62-14.4,10.9-21.73.53-1.19,1.55-3.05,1.37-4.33-8.96,5.89-16.33,14.98-22.24,23.86-3.62,5.44-11.79,22.82-15.88,25.56-2.7,1.8-6.18,2.12-9.2.98-7.38-2.79.15-13.2-.62-14.15-11.39,8.66-25.94,20.19-41.21,14.53-7.38-2.74-12.99-11.26-12.15-19.18l-8.04,7.23c-8.24,6.44-18.49,15.84-29.89,12.29-4.85-1.51-8.17-6.74-7.67-11.76-6.73,6.25-12.04,14.34-22.48,12.9-3.76-.52-8.59-5.88-8.59-9.54v-8.55ZM570.25,384.14c-.87-1.37-5,.07-6.29.58-7.95,3.11-14.85,11.86-19.03,19.03,7.95-.41,16.08-4.59,21.23-10.63,1.34-1.57,5.33-7.04,4.09-8.98ZM455.69,384.67c-3.64.53-9.63,7.64-11.69,10.64-4.28,6.26-12.53,23.65-12.04,31,.23,3.49,1.59,2.11,3.41.25,5.8-5.92,22.75-30.53,22.85-38.16.02-1.49-.55-4.01-2.53-3.72ZM773.79,385.76c-1.74-1.77-5.93,1.26-7.38,2.47-6.71,5.6-13.95,20.66-16.57,29.01-1.11,3.54-2.24,7.08-1.83,10.85,1.13,1.16,5.88-4.98,6.72-5.97,4.51-5.32,8.56-11.4,12.14-17.38,1.96-3.26,10.01-15.83,6.91-18.99Z"/>
            <path class="st2" d="M439.06,304.5c19.77,18.84,9.44,49.9-4.78,68.65-20.56,27.11-52.94,47.4-85.58,56.35-2.65.73-9.05,1.41-10.74,2.73-1.1.86-2.36,3.35-3.11,4.66-8.39,14.59-15.08,30.28-23.47,44.9-4.98,8.68-10.65,19.9-22.58,18.25-1.68-.23-4.87-1.72-5.38-3.43-1.14-3.83,4.14-9.26,6.2-12.75,4.44-7.53,8.45-15.43,12.61-23.12,23.04-42.53,44.48-85.95,67.08-128.71,4.89-5.1,12.07-1.43,12.9,5.22.61,4.84-2.67,11.58-4.52,16.1-8.85,21.63-20.96,42.65-32.21,63.1-.11.36.41.34.76.25,28.68-7.44,67.6-41.15,81.7-66.97,32.58-59.67-38.18-50.36-73.14-40.48-30.46,8.61-90.18,32.96-87.06,72.01,1.47,18.36,22.72,26.19,38.59,27.19,2.38.15,14.64-.75,15.32-.29,3.72,2.52-7.99,4.7-9.14,4.86-21.26,3-51.88-5.35-57.36-29.02-11-47.6,61.45-78.28,97.46-87.29,24.53-6.14,66.5-11.2,86.44,7.8Z"/>
            <path class="st2" d="M433.1,238.62c-2.94,6.1-5.42,22.73,4.85,22.75,9.72.02,31.44-18.49,37.83-25.93,7.45-8.66,11.23-20.09,16.73-29.88,2.16-3.84,3.96-5.01,8.61-4.27,5.5.87,5.48,5.98,4.44,10.32,5.94-5.57,11.52-10.34,20.23-8.06,15.79,4.14,8.37,29.68-5.1,33.81-3.78,1.16-12.03.36-11.37-5.23.22-1.88,8.93-7.74,10.96-11.23,2.46-4.21,5.21-12.66-2.76-8.46-17.02,8.99-23.47,32.5-33,47.29-2.64,4.09-5.63,8.47-11.22,7.7-9.46-1.3-4.45-10.89-2.47-16.46-8.4,6.32-16.89,14.21-27.34,16.94-12.45,3.25-24.68-1.27-27.41-14.76-4.72-23.37,17.09-54.73,42.52-51.3,14.67,1.97,17.56,14.77,8.37,25.31-8.43,9.66-21.54,12.31-33.87,11.46ZM436.66,231.3c8.6-1.44,17.48-6.27,22.17-13.82,1.31-2.11,4.35-7.1-.14-6.92-7.85.33-19.41,13.65-22.03,20.74Z"/>
            <path class="st2" d="M732.86,354.68c15.53-2.2,13.88,21.34-.51,19.42-10.55-1.41-10.2-17.91.51-19.42Z"/>
          </g>
          <path class="st2" d="M350.68,212.37c2.88-5.12,9.51-17.41,19.89-36.87,8.85-16.63,20.08-40.73,39.91-72.3,11.51-18.31,22.03-33.73,31.54-46.27,5.69-7.54,10.95-11.52,15.79-11.93,2.78-.24,5.18.55,7.2,2.34,1.78,1.4,2.77,3.29,2.97,5.66.3,3.5-1.34,9.19-4.93,17.07-15.16,33.35-30.43,66.57-41.67,101.5-7.68,23.88-17.64,51.75-15.48,77.17.11,1.24.32,2.52.64,3.84.86,3.97,1.32,6.32,1.38,7.04.25,2.99-.64,5.87-2.69,8.63-1.76,2.54-3.87,3.91-6.34,4.12-2.89.25-5.4-1.25-7.54-4.49-1.76-2.44-2.84-5.98-3.24-10.62-2.48-29.15,13.84-88.5,55.18-178.04-23.13,29.36-44.87,70.7-71.46,124.02-5.86,11.6-10.84,19.55-14.93,23.84-4,4.18-7.96,6.44-11.87,6.77-3.92.33-6.94-1.12-9.09-4.36-1.43-2.16-2.27-4.73-2.53-7.72-2.19-25.75,6.54-67.59,32.42-125.51-9.5,11.5-18.44,24.66-26.83,39.48-24.69,43.65-40.73,90.39-55.95,137.95-3.69,11.52-8.57,17.54-14.65,18.06-1.55.13-2.89-.43-4.03-1.68-.9-.86-1.41-1.96-1.53-3.29-.17-1.96,1.28-7.48,4.35-16.56,18.75-57.57,43.38-114.42,76.25-165.41,1.34-2.08,2.69-4.15,4.06-6.2,11.32-16.94,19.2-27.99,23.63-33.14,4.63-5.27,8.6-8.05,11.9-8.33,2.06-.18,4.15.58,6.26,2.27,2.55,1.96,3.95,4.33,4.19,7.11.26,3.09-1.47,8.37-5.19,15.85-10.64,21.24-20.09,44.88-28.35,70.9-7.03,23.43-8.05,43.13-9.28,59.11Z"/>
        </g>
        <g>
          <g>
            <path class="st1" d="M1304.84,421.89l-8.54,11.41c-6.35,6.73-18.21,6.88-21.39-2.98-6.4-19.81,16.25-64.7,41.82-51.13l3.13,3.85c.88-2.98,2.56-6.33,5.95-6.74,6.31-.77,9.46,2.07,8.44,8.43-2.04,12.72-14.2,29.37-15.8,42.72-.39,3.28-.44,6.33,3.23,3.75,3.52-2.48,11.84-12.71,13.96-16.6,2.46-4.53,3.76-10.6,5.74-15.5,20.73-51.26,49.71-98.83,75.88-147.36.15-1.46-.65-.42-1.04,0-5.12,5.41-11.95,16.16-20.74,14.54-5.27-.97-8.13-4.74-8.73-9.92-1.69-14.57,6.71-34.18,13.66-46.83,2.85-5.19,4.78-11.8,12.05-9.43s4.45,9.88,2.6,15.27c-3.36,9.75-8.46,19.32-11.79,29.12-1.22,3.59-2.79,7.29-2.58,11.14.91.95,6.08-3.82,7-4.65,7.12-6.35,16-17.68,20.54-26.08,2.48-4.58,8.26-20.05,11.28-22.38,3.06-2.36,9.48-.46,10.67,3.36,1.16,3.72-2.07,11.99-3.37,15.85-16.94,50.13-48.17,99.78-71.44,147.65-7.24,14.89-19.76,38.18-23.53,53.64-.62,2.56-2.24,8.38,2.35,7.57,4.98-.88,22.47-15.75,26.04-20.11,3.25-3.97,3.83-8.45,6.2-12.96,6.43-12.26,19.82-22.76,34.12-22.58,18.45.23,23.43,15.63,9.4,27.24-7.51,6.22-18.28,9.15-27.96,8.81-1.16-.04-2.72-1.15-3.64,0-.36.45-.94,2.75-1.13,3.53-1.63,6.55-2.22,18.18,7.37,17.75,9.93-.45,33.99-18.9,38.86-27.47,4.54-7.98,7.32-18.52,11.79-26.54,2.4-4.31,5.38-4.91,9.9-2.95,6.51,2.82,2.4,9.44,1.23,14.07-.17.68-.98.99.37.89,6.3-6.24,15.18-16.48,24.89-16.08,4,.16,7.9,2.9,8.49,7.07,1.9,13.42-13.05,32.49-18.46,44.64-.51,1.14-2.17,3.89-.93,4.76,2.32.07,15.39-15.72,17.27-18.46,3.76-5.46,4.42-11.02,7.59-16.75,7.27-13.16,21.57-22.65,37.07-18.91,14.98,3.62,13.67,17.82,4.46,27.03-3.63,3.63-11.48,7.96-16.15,3.82-4.84-4.29,3.93-8.66,6.5-11.66,3.1-3.61,9.18-13.73-.52-10.36-9.58,3.33-18.9,18.24-20.91,27.78-2.36,11.16-.04,21.54,13.65,18.31,10.45-2.46,25.89-16.01,31.17-25.29,4.12-7.25,8.62-21.99,13.9-27.53,4.66-4.89,14.21-.57,12.9,6.17-4.08,12.4-11.21,24.14-15.36,36.43-1.05,3.12-2.71,6.63-1.94,9.97,4-.01,14.91-12.67,17.56-16.11,8.46-11.02,10.47-26.17,21.9-34.56,7.65-5.61,20.94-5.79,26.33,3.01.93-.01,2.19-7.74,8.8-7.25,3.23.24,7.5,3.24,6.9,6.87-4.54,12.77-11.03,25.05-14.77,38.09-.95,3.29-2.33,7.17-1.18,10.47,9.76-7.26,16.32-18.21,23.88-27.65,1.74-1.79,3.89-1.37,6.17-1.35.08,1.06.02,1.98-.39,2.98-1.83,4.42-12.17,18.03-15.68,22.13-5.12,5.97-13.3,14.87-21.95,11.1-2.49-1.08-6.01-5.91-6.01-8.5v-9.06c-6.17,6.82-13.52,20.8-24.71,16.16-5.59-2.32-6.38-8.83-6.63-14.09-6.88,7.8-16.17,19.14-28,15.05-7.16-2.47-6.33-9.95-6.19-16.08-10.77,10.14-25.26,20.54-40.9,16.02-8.55-2.47-14.24-9.71-14.53-18.61-6.99,8.35-18.23,24.59-31.02,18.06-7.76-3.97-1.85-18.08.62-24.11,3.11-7.58,7.62-14.4,10.9-21.73.53-1.19,1.55-3.05,1.37-4.33-8.96,5.89-16.33,14.98-22.24,23.86-3.62,5.44-11.79,22.82-15.88,25.56-2.7,1.8-6.18,2.12-9.2.98-7.38-2.79.15-13.2-.62-14.15-11.39,8.66-25.94,20.19-41.21,14.53-7.38-2.74-12.99-11.26-12.15-19.18l-8.04,7.23c-8.24,6.44-18.49,15.84-29.89,12.29-4.85-1.51-8.17-6.74-7.67-11.76-6.73,6.25-12.04,14.34-22.48,12.9-3.76-.52-8.59-5.88-8.59-9.54v-8.55ZM1426.53,384.14c-.87-1.37-5,.07-6.29.58-7.95,3.11-14.85,11.86-19.03,19.03,7.95-.41,16.08-4.59,21.23-10.63,1.34-1.57,5.33-7.04,4.09-8.98ZM1311.96,384.67c-3.64.53-9.63,7.64-11.69,10.64-4.28,6.26-12.53,23.65-12.04,31,.23,3.49,1.59,2.11,3.41.25,5.8-5.92,22.75-30.53,22.85-38.16.02-1.49-.55-4.01-2.53-3.72ZM1630.07,385.76c-1.74-1.77-5.93,1.26-7.38,2.47-6.71,5.6-13.95,20.66-16.57,29.01-1.11,3.54-2.24,7.08-1.83,10.85,1.13,1.16,5.88-4.98,6.72-5.97,4.51-5.32,8.56-11.4,12.14-17.38,1.96-3.26,10.01-15.83,6.91-18.99Z"/>
            <path class="st1" d="M1295.34,304.5c19.77,18.84,9.44,49.9-4.78,68.65-20.56,27.11-52.94,47.4-85.58,56.35-2.65.73-9.05,1.41-10.74,2.73-1.1.86-2.36,3.35-3.11,4.66-8.39,14.59-15.08,30.28-23.47,44.9-4.98,8.68-10.65,19.9-22.58,18.25-1.68-.23-4.87-1.72-5.38-3.43-1.14-3.83,4.14-9.26,6.2-12.75,4.44-7.53,8.45-15.43,12.61-23.12,23.04-42.53,44.48-85.95,67.08-128.71,4.89-5.1,12.07-1.43,12.9,5.22.61,4.84-2.67,11.58-4.52,16.1-8.85,21.63-20.96,42.65-32.21,63.1-.11.36.41.34.76.25,28.68-7.44,67.6-41.15,81.7-66.97,32.58-59.67-38.18-50.36-73.14-40.48-30.46,8.61-90.18,32.96-87.06,72.01,1.47,18.36,22.72,26.19,38.59,27.19,2.38.15,14.64-.75,15.32-.29,3.72,2.52-7.99,4.7-9.14,4.86-21.26,3-51.88-5.35-57.36-29.02-11-47.6,61.45-78.28,97.46-87.29,24.53-6.14,66.5-11.2,86.44,7.8Z"/>
            <path class="st1" d="M1289.37,238.62c-2.94,6.1-5.42,22.73,4.85,22.75,9.72.02,31.44-18.49,37.83-25.93,7.45-8.66,11.23-20.09,16.73-29.88,2.16-3.84,3.96-5.01,8.61-4.27,5.5.87,5.48,5.98,4.44,10.32,5.94-5.57,11.52-10.34,20.23-8.06,15.79,4.14,8.37,29.68-5.1,33.81-3.78,1.16-12.03.36-11.37-5.23.22-1.88,8.93-7.74,10.96-11.23,2.46-4.21,5.21-12.66-2.76-8.46-17.02,8.99-23.47,32.5-33,47.29-2.64,4.09-5.63,8.47-11.22,7.7-9.46-1.3-4.45-10.89-2.47-16.46-8.4,6.32-16.89,14.21-27.34,16.94-12.45,3.25-24.68-1.27-27.41-14.76-4.72-23.37,17.09-54.73,42.52-51.3,14.67,1.97,17.56,14.77,8.37,25.31-8.43,9.66-21.54,12.31-33.87,11.46ZM1292.93,231.3c8.6-1.44,17.48-6.27,22.17-13.82,1.31-2.11,4.35-7.1-.14-6.92-7.85.33-19.41,13.65-22.03,20.74Z"/>
            <path class="st1" d="M1589.13,354.68c15.53-2.2,13.88,21.34-.51,19.42-10.55-1.41-10.2-17.91.51-19.42Z"/>
          </g>
          <path class="st1" d="M1206.96,212.37c2.88-5.12,9.51-17.41,19.89-36.87,8.85-16.63,20.08-40.73,39.91-72.3,11.51-18.31,22.03-33.73,31.54-46.27,5.69-7.54,10.95-11.52,15.79-11.93,2.78-.24,5.18.55,7.2,2.34,1.78,1.4,2.77,3.29,2.97,5.66.3,3.5-1.34,9.19-4.93,17.07-15.16,33.35-30.43,66.57-41.67,101.5-7.68,23.88-17.64,51.75-15.48,77.17.11,1.24.32,2.52.64,3.84.86,3.97,1.32,6.32,1.38,7.04.25,2.99-.64,5.87-2.69,8.63-1.76,2.54-3.87,3.91-6.34,4.12-2.89.25-5.4-1.25-7.54-4.49-1.76-2.44-2.84-5.98-3.24-10.62-2.48-29.15,13.84-88.5,55.18-178.04-23.13,29.36-44.87,70.7-71.46,124.02-5.86,11.6-10.84,19.55-14.93,23.84-4,4.18-7.96,6.44-11.87,6.77-3.92.33-6.94-1.12-9.09-4.36-1.43-2.16-2.27-4.73-2.53-7.72-2.19-25.75,6.54-67.59,32.42-125.51-9.5,11.5-18.44,24.66-26.83,39.48-24.69,43.65-40.73,90.39-55.95,137.95-3.69,11.52-8.57,17.54-14.65,18.06-1.55.13-2.89-.43-4.03-1.68-.9-.86-1.41-1.96-1.53-3.29-.17-1.96,1.28-7.48,4.35-16.56,18.75-57.57,43.38-114.42,76.25-165.41,1.34-2.08,2.69-4.15,4.06-6.2,11.32-16.94,19.2-27.99,23.63-33.14,4.63-5.27,8.6-8.05,11.9-8.33,2.06-.18,4.15.58,6.26,2.27,2.55,1.96,3.95,4.33,4.19,7.11.26,3.09-1.47,8.37-5.19,15.85-10.64,21.24-20.09,44.88-28.35,70.9-7.03,23.43-8.05,43.13-9.28,59.11Z"/>
        </g>
      </g>
      <g>
        <g>
          <path class="st4" d="M876.71,962.76l-8.54,11.41c-6.35,6.73-18.21,6.88-21.39-2.98-6.4-19.81,16.25-64.7,41.82-51.13l3.13,3.85c.88-2.98,2.56-6.33,5.95-6.74,6.31-.77,9.46,2.07,8.44,8.43-2.04,12.72-14.2,29.37-15.8,42.72-.39,3.28-.44,6.33,3.23,3.75s11.84-12.71,13.96-16.6c2.46-4.53,3.76-10.6,5.74-15.5,20.73-51.26,49.71-98.83,75.88-147.36.15-1.46-.65-.42-1.04,0-5.12,5.41-11.95,16.16-20.74,14.54-5.27-.97-8.13-4.74-8.73-9.92-1.69-14.57,6.71-34.18,13.66-46.83,2.85-5.19,4.78-11.8,12.05-9.43s4.45,9.88,2.6,15.27c-3.36,9.75-8.46,19.32-11.79,29.12-1.22,3.59-2.79,7.29-2.58,11.14.91.95,6.08-3.82,7-4.65,7.12-6.35,16-17.68,20.54-26.08,2.48-4.58,8.26-20.05,11.28-22.38s9.48-.46,10.67,3.36c1.16,3.72-2.07,11.99-3.37,15.85-16.94,50.13-48.17,99.78-71.44,147.65-7.24,14.89-19.76,38.18-23.53,53.64-.62,2.56-2.24,8.38,2.35,7.57,4.98-.88,22.47-15.75,26.04-20.11,3.25-3.97,3.83-8.45,6.2-12.96,6.43-12.26,19.82-22.76,34.12-22.58,18.45.23,23.43,15.63,9.4,27.24-7.51,6.22-18.28,9.15-27.96,8.81-1.16-.04-2.72-1.15-3.64,0-.36.45-.94,2.75-1.13,3.53-1.63,6.55-2.22,18.18,7.37,17.75,9.93-.45,33.99-18.9,38.86-27.47,4.54-7.98,7.32-18.52,11.79-26.54,2.4-4.31,5.38-4.91,9.9-2.95,6.51,2.82,2.4,9.44,1.23,14.07-.17.68-.98.99.37.89,6.3-6.24,15.18-16.48,24.89-16.08,4,.16,7.9,2.9,8.49,7.07,1.9,13.42-13.05,32.49-18.46,44.64-.51,1.14-2.17,3.89-.93,4.76,2.32.07,15.39-15.72,17.27-18.46,3.76-5.46,4.42-11.02,7.59-16.75,7.27-13.16,21.57-22.65,37.07-18.91,14.98,3.62,13.67,17.82,4.46,27.03-3.63,3.63-11.48,7.96-16.15,3.82s3.93-8.66,6.5-11.66c3.1-3.61,9.18-13.73-.52-10.36-9.58,3.33-18.9,18.24-20.91,27.78-2.36,11.16-.04,21.54,13.65,18.31,10.45-2.46,25.89-16.01,31.17-25.29,4.12-7.25,8.62-21.99,13.9-27.53,4.66-4.89,14.21-.57,12.9,6.17-4.08,12.4-11.21,24.14-15.36,36.43-1.05,3.12-2.71,6.63-1.94,9.97,4-.01,14.91-12.67,17.56-16.11,8.46-11.02,10.47-26.17,21.9-34.56,7.65-5.61,20.94-5.79,26.33,3.01.93-.01,2.19-7.74,8.8-7.25,3.23.24,7.5,3.24,6.9,6.87-4.54,12.77-11.03,25.05-14.77,38.09-.95,3.29-2.33,7.17-1.18,10.47,9.76-7.26,16.32-18.21,23.88-27.65,1.74-1.79,3.89-1.37,6.17-1.35.08,1.06.02,1.98-.39,2.98-1.83,4.42-12.17,18.03-15.68,22.13-5.12,5.97-13.3,14.87-21.95,11.1-2.49-1.08-6.01-5.91-6.01-8.5v-9.06c-6.17,6.82-13.52,20.8-24.71,16.16-5.59-2.32-6.38-8.83-6.63-14.09-6.88,7.8-16.17,19.14-28,15.05-7.16-2.47-6.33-9.95-6.19-16.08-10.77,10.14-25.26,20.54-40.9,16.02-8.55-2.47-14.24-9.71-14.53-18.61-6.99,8.35-18.23,24.59-31.02,18.06-7.76-3.97-1.85-18.08.62-24.11,3.11-7.58,7.62-14.4,10.9-21.73.53-1.19,1.55-3.05,1.37-4.33-8.96,5.89-16.33,14.98-22.24,23.86-3.62,5.44-11.79,22.82-15.88,25.56-2.7,1.8-6.18,2.12-9.2.98-7.38-2.79.15-13.2-.62-14.15-11.39,8.66-25.94,20.19-41.21,14.53-7.38-2.74-12.99-11.26-12.15-19.18l-8.04,7.23c-8.24,6.44-18.49,15.84-29.89,12.29-4.85-1.51-8.17-6.74-7.67-11.76-6.73,6.25-12.04,14.34-22.48,12.9-3.76-.52-8.59-5.88-8.59-9.54v-8.55ZM998.39,925.02c-.87-1.37-5,.07-6.29.58-7.95,3.11-14.85,11.86-19.03,19.03,7.95-.41,16.08-4.59,21.23-10.63,1.34-1.57,5.33-7.04,4.09-8.98ZM883.83,925.54c-3.64.53-9.63,7.64-11.69,10.64-4.28,6.26-12.53,23.65-12.04,31,.23,3.49,1.59,2.11,3.41.25,5.8-5.92,22.75-30.53,22.85-38.16.02-1.49-.55-4.01-2.53-3.72ZM1201.93,926.63c-1.74-1.77-5.93,1.26-7.38,2.47-6.71,5.6-13.95,20.66-16.57,29.01-1.11,3.54-2.24,7.08-1.83,10.85,1.13,1.16,5.88-4.98,6.72-5.97,4.51-5.32,8.56-11.4,12.14-17.38,1.96-3.26,10.01-15.83,6.91-18.99Z"/>
          <path class="st4" d="M867.2,845.38c19.77,18.84,9.44,49.9-4.78,68.65-20.56,27.11-52.94,47.4-85.58,56.35-2.65.73-9.05,1.41-10.74,2.73-1.1.86-2.36,3.35-3.11,4.66-8.39,14.59-15.08,30.28-23.47,44.9-4.98,8.68-10.65,19.9-22.58,18.25-1.68-.23-4.87-1.72-5.38-3.43-1.14-3.83,4.14-9.26,6.2-12.75,4.44-7.53,8.45-15.43,12.61-23.12,23.04-42.53,44.48-85.95,67.08-128.71,4.89-5.1,12.07-1.43,12.9,5.22.61,4.84-2.67,11.58-4.52,16.1-8.85,21.63-20.96,42.65-32.21,63.1-.11.36.41.34.76.25,28.68-7.44,67.6-41.15,81.7-66.97,32.58-59.67-38.18-50.36-73.14-40.48-30.46,8.61-90.18,32.96-87.06,72.01,1.47,18.36,22.72,26.19,38.59,27.19,2.38.15,14.64-.75,15.32-.29,3.72,2.52-7.99,4.7-9.14,4.86-21.26,3-51.88-5.35-57.36-29.02-11-47.6,61.45-78.28,97.46-87.29,24.53-6.14,66.5-11.2,86.44,7.8Z"/>
          <path class="st4" d="M861.24,779.49c-2.94,6.1-5.42,22.73,4.85,22.75,9.72.02,31.44-18.49,37.83-25.93,7.45-8.66,11.23-20.09,16.73-29.88,2.16-3.84,3.96-5.01,8.61-4.27,5.5.87,5.48,5.98,4.44,10.32,5.94-5.57,11.52-10.34,20.23-8.06,15.79,4.14,8.37,29.68-5.1,33.81-3.78,1.16-12.03.36-11.37-5.23.22-1.88,8.93-7.74,10.96-11.23,2.46-4.21,5.21-12.66-2.76-8.46-17.02,8.99-23.47,32.5-33,47.29-2.64,4.09-5.63,8.47-11.22,7.7-9.46-1.3-4.45-10.89-2.47-16.46-8.4,6.32-16.89,14.21-27.34,16.94-12.45,3.25-24.68-1.27-27.41-14.76-4.72-23.37,17.09-54.73,42.52-51.3,14.67,1.97,17.56,14.77,8.37,25.31-8.43,9.66-21.54,12.31-33.87,11.46ZM864.79,772.17c8.6-1.44,17.48-6.27,22.17-13.82,1.31-2.11,4.35-7.1-.14-6.92-7.85.33-19.41,13.65-22.03,20.74Z"/>
          <path class="st4" d="M1161,895.55c15.53-2.2,13.88,21.34-.51,19.42-10.55-1.41-10.2-17.91.51-19.42Z"/>
        </g>
        <path class="st4" d="M778.82,753.25c2.88-5.12,9.51-17.41,19.89-36.87,8.85-16.63,20.08-40.73,39.91-72.3,11.51-18.31,22.03-33.73,31.54-46.27,5.69-7.54,10.95-11.52,15.79-11.93,2.78-.24,5.18.55,7.2,2.34,1.78,1.4,2.77,3.29,2.97,5.66.3,3.5-1.34,9.19-4.93,17.07-15.16,33.35-30.43,66.57-41.67,101.5-7.68,23.88-17.64,51.75-15.48,77.17.11,1.24.32,2.52.64,3.84.86,3.97,1.32,6.32,1.38,7.04.25,2.99-.64,5.87-2.69,8.63-1.76,2.54-3.87,3.91-6.34,4.12-2.89.25-5.4-1.25-7.54-4.49-1.76-2.44-2.84-5.98-3.24-10.62-2.48-29.15,13.84-88.5,55.18-178.04-23.13,29.36-44.87,70.7-71.46,124.02-5.86,11.6-10.84,19.55-14.93,23.84-4,4.18-7.96,6.44-11.87,6.77-3.92.33-6.94-1.12-9.09-4.36-1.43-2.16-2.27-4.73-2.53-7.72-2.19-25.75,6.54-67.59,32.42-125.51-9.5,11.5-18.44,24.66-26.83,39.48-24.69,43.65-40.73,90.39-55.95,137.95-3.69,11.52-8.57,17.54-14.65,18.06-1.55.13-2.89-.43-4.03-1.68-.9-.86-1.41-1.96-1.53-3.29-.17-1.96,1.28-7.48,4.35-16.56,18.75-57.57,43.38-114.42,76.25-165.41,1.34-2.08,2.69-4.15,4.06-6.2,11.32-16.94,19.2-27.99,23.63-33.14,4.63-5.27,8.6-8.05,11.9-8.33,2.06-.18,4.15.58,6.26,2.27,2.55,1.96,3.95,4.33,4.19,7.11.26,3.09-1.47,8.37-5.19,15.85-10.64,21.24-20.09,44.88-28.35,70.9-7.03,23.43-8.05,43.13-9.28,59.11Z"/>
      </g>
      <path d="M-355.93-1027.27l31.8-57.61c18.28-31.12,56.64-91.62,89.76-106.08,10.79-4.71,23.06-5.08,28.14,7.55,3.18,7.92,1.77,14.35-.31,22.27-6.32,24.11-18.41,48.44-29.49,76.41-18.13,45.8-31.54,78.94-46.87,141.96-7.28,29.91-13.78,61.5-11.94,92.43.66,11.08,2.25,23.67,9.35,32.67,4.19,5.32,10.93,8.18,15.46,13.23,4.86,5.43,4.39,14.78-4.74,15.43-2.05.15-4.1-.35-6.03-1.06-19.17-7.12-29.36-29.67-33.47-48.17-4.41-19.87-4.18-40.64-2.47-60.82.5-5.9,1.16-11.8,1.93-17.67,11.25-86.07,43.24-169.39,81.8-246.39-1.91-1.82-14.84,11.17-16.5,12.96-26.76,28.87-51.84,76.63-69.96,111.88-8.58,16.69-34.32,77.31-45.96,85.93-6.69,4.95-16.64,5.62-19.24-3.73-2.78-9.99.99-48.7,1.77-61.69,1.85-30.9,5.93-61.95,7.03-92.88.91-25.74-.14-53.37-2.07-77.64-.03-.39-.59-.43-.69-.05l-3.2,12.79c-24.53,96.76-42.26,196.58-80.56,289.11-9.76,23.58-26.86,67.96-55.38,72.51-5.36.85-11.6.25-16.34-2.57-5.05-3.01-7.4-10.11-2.88-14.75,1.77-1.81,4.11-2.92,6.42-3.96,6.78-3.04,14.31-5.86,19.5-11.41,2.99-3.2,5.55-6.84,7.88-10.53,5.46-8.68,9.69-18.12,13.48-27.62,5.34-13.38,9.64-27.13,14.14-40.81,12.07-36.71,24.27-76.02,33.21-113.66,12.54-52.81,21.6-109.79,33.54-164.27,2.33-10.62,7.58-22.33,18.89-26.07,27.62-9.14,31.68,23.86,33.98,42.98,3.54,29.34,3.29,59.57,2.96,88.86-.26,23.54-.37,47.04-2.95,70.47Z"/>
      <text class="st0" transform="translate(-819.03 -523.16) rotate(1.41)"><tspan x="0" y="0">Freestyle Script</tspan></text>
      <g>
        <g>
          <path class="st2" d="M1655.74,1561.46l-8.54,11.41c-6.35,6.73-18.21,6.88-21.39-2.98-6.4-19.81,16.25-64.7,41.82-51.13l3.13,3.85c.88-2.98,2.56-6.33,5.95-6.74,6.31-.77,9.46,2.07,8.44,8.43-2.04,12.72-14.2,29.37-15.8,42.72-.39,3.28-.44,6.33,3.23,3.75s11.84-12.71,13.96-16.6c2.46-4.53,3.76-10.6,5.74-15.5,20.73-51.26,49.71-98.83,75.88-147.36.15-1.46-.65-.42-1.04,0-5.12,5.41-11.95,16.16-20.74,14.54-5.27-.97-8.13-4.74-8.73-9.92-1.69-14.57,6.71-34.18,13.66-46.83,2.85-5.19,4.78-11.8,12.05-9.43,7.57,2.47,4.45,9.88,2.6,15.27-3.36,9.75-8.46,19.32-11.79,29.12-1.22,3.59-2.79,7.29-2.58,11.14.91.95,6.08-3.82,7-4.65,7.12-6.35,16-17.68,20.54-26.08,2.48-4.58,8.26-20.05,11.28-22.38,3.06-2.36,9.48-.46,10.67,3.36,1.16,3.72-2.07,11.99-3.37,15.85-16.94,50.13-48.17,99.78-71.44,147.65-7.24,14.89-19.76,38.18-23.53,53.64-.62,2.56-2.24,8.38,2.35,7.57,4.98-.88,22.47-15.75,26.04-20.11,3.25-3.97,3.83-8.45,6.2-12.96,6.43-12.26,19.82-22.76,34.12-22.58,18.45.23,23.43,15.63,9.4,27.24-7.51,6.22-18.28,9.15-27.96,8.81-1.16-.04-2.72-1.15-3.64,0-.36.45-.94,2.75-1.13,3.53-1.63,6.55-2.22,18.18,7.37,17.75,9.93-.45,33.99-18.9,38.86-27.47,4.54-7.98,7.32-18.52,11.79-26.54,2.4-4.31,5.38-4.91,9.9-2.95,6.51,2.82,2.4,9.44,1.23,14.07-.17.68-.98.99.37.89,6.3-6.24,15.18-16.48,24.89-16.08,4,.16,7.9,2.9,8.49,7.07,1.9,13.42-13.05,32.49-18.46,44.64-.51,1.14-2.17,3.89-.93,4.76,2.32.07,15.39-15.72,17.27-18.46,3.76-5.46,4.42-11.02,7.59-16.75,7.27-13.16,21.57-22.65,37.07-18.91,14.98,3.62,13.67,17.82,4.46,27.03-3.63,3.63-11.48,7.96-16.15,3.82-4.84-4.29,3.93-8.66,6.5-11.66,3.1-3.61,9.18-13.73-.52-10.36-9.58,3.33-18.9,18.24-20.91,27.78-2.36,11.16-.04,21.54,13.65,18.31,10.45-2.46,25.89-16.01,31.17-25.29,4.12-7.25,8.62-21.99,13.9-27.53,4.66-4.89,14.21-.57,12.9,6.17-4.08,12.4-11.21,24.14-15.36,36.43-1.05,3.12-2.71,6.63-1.94,9.97,4-.01,14.91-12.67,17.56-16.11,8.46-11.02,10.47-26.17,21.9-34.56,7.65-5.61,20.94-5.79,26.33,3.01.93-.01,2.19-7.74,8.8-7.25,3.23.24,7.5,3.24,6.9,6.87-4.54,12.77-11.03,25.05-14.77,38.09-.95,3.29-2.33,7.17-1.18,10.47,9.76-7.26,16.32-18.21,23.88-27.65,1.74-1.79,3.89-1.37,6.17-1.35.08,1.06.02,1.98-.39,2.98-1.83,4.42-12.17,18.03-15.68,22.13-5.12,5.97-13.3,14.87-21.95,11.1-2.49-1.08-6.01-5.91-6.01-8.5v-9.06c-6.17,6.82-13.52,20.8-24.71,16.16-5.59-2.32-6.38-8.83-6.63-14.09-6.88,7.8-16.17,19.14-28,15.05-7.16-2.47-6.33-9.95-6.19-16.08-10.77,10.14-25.26,20.54-40.9,16.02-8.55-2.47-14.24-9.71-14.53-18.61-6.99,8.35-18.23,24.59-31.02,18.06-7.76-3.97-1.85-18.08.62-24.11,3.11-7.58,7.62-14.4,10.9-21.73.53-1.19,1.55-3.05,1.37-4.33-8.96,5.89-16.33,14.98-22.24,23.86-3.62,5.44-11.79,22.82-15.88,25.56-2.7,1.8-6.18,2.12-9.2.98-7.38-2.79.15-13.2-.62-14.15-11.39,8.66-25.94,20.19-41.21,14.53-7.38-2.74-12.99-11.26-12.15-19.18l-8.04,7.23c-8.24,6.44-18.49,15.84-29.89,12.29-4.85-1.51-8.17-6.74-7.67-11.76-6.73,6.25-12.04,14.34-22.48,12.9-3.76-.52-8.59-5.88-8.59-9.54v-8.55ZM1777.42,1523.71c-.87-1.37-5,.07-6.29.58-7.95,3.11-14.85,11.86-19.03,19.03,7.95-.41,16.08-4.59,21.23-10.63,1.34-1.57,5.33-7.04,4.09-8.98ZM1662.86,1524.24c-3.64.53-9.63,7.64-11.69,10.64-4.28,6.26-12.53,23.65-12.04,31,.23,3.49,1.59,2.11,3.41.25,5.8-5.92,22.75-30.53,22.85-38.16.02-1.49-.55-4.01-2.53-3.72ZM1980.97,1525.33c-1.74-1.77-5.93,1.26-7.38,2.47-6.71,5.6-13.95,20.66-16.57,29.01-1.11,3.54-2.24,7.08-1.83,10.85,1.13,1.16,5.88-4.98,6.72-5.97,4.51-5.32,8.56-11.4,12.14-17.38,1.96-3.26,10.01-15.83,6.91-18.99Z"/>
          <path class="st2" d="M1646.24,1444.07c19.77,18.84,9.44,49.9-4.78,68.65-20.56,27.11-52.94,47.4-85.58,56.35-2.65.73-9.05,1.41-10.74,2.73-1.1.86-2.36,3.35-3.11,4.66-8.39,14.59-15.08,30.28-23.47,44.9-4.98,8.68-10.65,19.9-22.58,18.25-1.68-.23-4.87-1.72-5.38-3.43-1.14-3.83,4.14-9.26,6.2-12.75,4.44-7.53,8.45-15.43,12.61-23.12,23.04-42.53,44.48-85.95,67.08-128.71,4.89-5.1,12.07-1.43,12.9,5.22.61,4.84-2.67,11.58-4.52,16.1-8.85,21.63-20.96,42.65-32.21,63.1-.11.36.41.34.76.25,28.68-7.44,67.6-41.15,81.7-66.97,32.58-59.67-38.18-50.36-73.14-40.48-30.46,8.61-90.18,32.96-87.06,72.01,1.47,18.36,22.72,26.19,38.59,27.19,2.38.15,14.64-.75,15.32-.29,3.72,2.52-7.99,4.7-9.14,4.86-21.26,3-51.88-5.35-57.36-29.02-11-47.6,61.45-78.28,97.46-87.29,24.53-6.14,66.5-11.2,86.44,7.8Z"/>
          <path class="st2" d="M1640.27,1378.19c-2.94,6.1-5.42,22.73,4.85,22.75,9.72.02,31.44-18.49,37.83-25.93,7.45-8.66,11.23-20.09,16.73-29.88,2.16-3.84,3.96-5.01,8.61-4.27,5.5.87,5.48,5.98,4.44,10.32,5.94-5.57,11.52-10.34,20.23-8.06,15.79,4.14,8.37,29.68-5.1,33.81-3.78,1.16-12.03.36-11.37-5.23.22-1.88,8.93-7.74,10.96-11.23,2.46-4.21,5.21-12.66-2.76-8.46-17.02,8.99-23.47,32.5-33,47.29-2.64,4.09-5.63,8.47-11.22,7.7-9.46-1.3-4.45-10.89-2.47-16.46-8.4,6.32-16.89,14.21-27.34,16.94-12.45,3.25-24.68-1.27-27.41-14.76-4.72-23.37,17.09-54.73,42.52-51.3,14.67,1.97,17.56,14.77,8.37,25.31-8.43,9.66-21.54,12.31-33.87,11.46ZM1643.83,1370.87c8.6-1.44,17.48-6.27,22.17-13.82,1.31-2.11,4.35-7.1-.14-6.92-7.85.33-19.41,13.65-22.03,20.74Z"/>
          <path class="st2" d="M1940.03,1494.25c15.53-2.2,13.88,21.34-.51,19.42-10.55-1.41-10.2-17.91.51-19.42Z"/>
        </g>
        <path class="st2" d="M1557.86,1351.94c2.88-5.12,9.51-17.41,19.89-36.87,8.85-16.63,20.08-40.73,39.91-72.3,11.51-18.31,22.03-33.73,31.54-46.27,5.69-7.54,10.95-11.52,15.79-11.93,2.78-.24,5.18.55,7.2,2.34,1.78,1.4,2.77,3.29,2.97,5.66.3,3.5-1.34,9.19-4.93,17.07-15.16,33.35-30.43,66.57-41.67,101.5-7.68,23.88-17.64,51.75-15.48,77.17.11,1.24.32,2.52.64,3.84.86,3.97,1.32,6.32,1.38,7.04.25,2.99-.64,5.87-2.69,8.63-1.76,2.54-3.87,3.91-6.34,4.12-2.89.25-5.4-1.25-7.54-4.49-1.76-2.44-2.84-5.98-3.24-10.62-2.48-29.15,13.84-88.5,55.18-178.04-23.13,29.36-44.87,70.7-71.46,124.02-5.86,11.6-10.84,19.55-14.93,23.84-4,4.18-7.96,6.44-11.87,6.77-3.92.33-6.94-1.12-9.09-4.36-1.43-2.16-2.27-4.73-2.53-7.72-2.19-25.75,6.54-67.59,32.42-125.51-9.5,11.5-18.44,24.66-26.83,39.48-24.69,43.65-40.73,90.39-55.95,137.95-3.69,11.52-8.57,17.54-14.65,18.06-1.55.13-2.89-.43-4.03-1.68-.9-.86-1.41-1.96-1.53-3.29-.17-1.96,1.28-7.48,4.35-16.56,18.75-57.57,43.38-114.42,76.25-165.41,1.34-2.08,2.69-4.15,4.06-6.2,11.32-16.94,19.2-27.99,23.63-33.14,4.63-5.27,8.6-8.05,11.9-8.33,2.06-.18,4.15.58,6.26,2.27,2.55,1.96,3.95,4.33,4.19,7.11.26,3.09-1.47,8.37-5.19,15.85-10.64,21.24-20.09,44.88-28.35,70.9-7.03,23.43-8.05,43.13-9.28,59.11Z"/>
      </g>
      <g>
        <g>
          <path class="st1" d="M2327.84,1608.74l-8.54,11.41c-6.35,6.73-18.21,6.88-21.39-2.98-6.4-19.81,16.25-64.7,41.82-51.13l3.13,3.85c.88-2.98,2.56-6.33,5.95-6.74,6.31-.77,9.46,2.07,8.44,8.43-2.04,12.72-14.2,29.37-15.8,42.72-.39,3.28-.44,6.33,3.23,3.75s11.84-12.71,13.96-16.6c2.46-4.53,3.76-10.6,5.74-15.5,20.73-51.26,49.71-98.83,75.88-147.36.15-1.46-.65-.42-1.04,0-5.12,5.41-11.95,16.16-20.74,14.54-5.27-.97-8.13-4.74-8.73-9.92-1.69-14.57,6.71-34.18,13.66-46.83,2.85-5.19,4.78-11.8,12.05-9.43,7.57,2.47,4.45,9.88,2.6,15.27-3.36,9.75-8.46,19.32-11.79,29.12-1.22,3.59-2.79,7.29-2.58,11.14.91.95,6.08-3.82,7-4.65,7.12-6.35,16-17.68,20.54-26.08,2.48-4.58,8.26-20.05,11.28-22.38s9.48-.46,10.67,3.36-2.07,11.99-3.37,15.85c-16.94,50.13-48.17,99.78-71.44,147.65-7.24,14.89-19.76,38.18-23.53,53.64-.62,2.56-2.24,8.38,2.35,7.57,4.98-.88,22.47-15.75,26.04-20.11,3.25-3.97,3.83-8.45,6.2-12.96,6.43-12.26,19.82-22.76,34.12-22.58,18.45.23,23.43,15.63,9.4,27.24-7.51,6.22-18.28,9.15-27.96,8.81-1.16-.04-2.72-1.15-3.64,0-.36.45-.94,2.75-1.13,3.53-1.63,6.55-2.22,18.18,7.37,17.75,9.93-.45,33.99-18.9,38.86-27.47,4.54-7.98,7.32-18.52,11.79-26.54,2.4-4.31,5.38-4.91,9.9-2.95,6.51,2.82,2.4,9.44,1.23,14.07-.17.68-.98.99.37.89,6.3-6.24,15.18-16.48,24.89-16.08,4,.16,7.9,2.9,8.49,7.07,1.9,13.42-13.05,32.49-18.46,44.64-.51,1.14-2.17,3.89-.93,4.76,2.32.07,15.39-15.72,17.27-18.46,3.76-5.46,4.42-11.02,7.59-16.75,7.27-13.16,21.57-22.65,37.07-18.91,14.98,3.62,13.67,17.82,4.46,27.03-3.63,3.63-11.48,7.96-16.15,3.82-4.84-4.29,3.93-8.66,6.5-11.66,3.1-3.61,9.18-13.73-.52-10.36-9.58,3.33-18.9,18.24-20.91,27.78-2.36,11.16-.04,21.54,13.65,18.31,10.45-2.46,25.89-16.01,31.17-25.29,4.12-7.25,8.62-21.99,13.9-27.53,4.66-4.89,14.21-.57,12.9,6.17-4.08,12.4-11.21,24.14-15.36,36.43-1.05,3.12-2.71,6.63-1.94,9.97,4-.01,14.91-12.67,17.56-16.11,8.46-11.02,10.47-26.17,21.9-34.56,7.65-5.61,20.94-5.79,26.33,3.01.93-.01,2.19-7.74,8.8-7.25,3.23.24,7.5,3.24,6.9,6.87-4.54,12.77-11.03,25.05-14.77,38.09-.95,3.29-2.33,7.17-1.18,10.47,9.76-7.26,16.32-18.21,23.88-27.65,1.74-1.79,3.89-1.37,6.17-1.35.08,1.06.02,1.98-.39,2.98-1.83,4.42-12.17,18.03-15.68,22.13-5.12,5.97-13.3,14.87-21.95,11.1-2.49-1.08-6.01-5.91-6.01-8.5v-9.06c-6.17,6.82-13.52,20.8-24.71,16.16-5.59-2.32-6.38-8.83-6.63-14.09-6.88,7.8-16.17,19.14-28,15.05-7.16-2.47-6.33-9.95-6.19-16.08-10.77,10.14-25.26,20.54-40.9,16.02-8.55-2.47-14.24-9.71-14.53-18.61-6.99,8.35-18.23,24.59-31.02,18.06-7.76-3.97-1.85-18.08.62-24.11,3.11-7.58,7.62-14.4,10.9-21.73.53-1.19,1.55-3.05,1.37-4.33-8.96,5.89-16.33,14.98-22.24,23.86-3.62,5.44-11.79,22.82-15.88,25.56-2.7,1.8-6.18,2.12-9.2.98-7.38-2.79.15-13.2-.62-14.15-11.39,8.66-25.94,20.19-41.21,14.53-7.38-2.74-12.99-11.26-12.15-19.18l-8.04,7.23c-8.24,6.44-18.49,15.84-29.89,12.29-4.85-1.51-8.17-6.74-7.67-11.76-6.73,6.25-12.04,14.34-22.48,12.9-3.76-.52-8.59-5.88-8.59-9.54v-8.55ZM2449.52,1571c-.87-1.37-5,.07-6.29.58-7.95,3.11-14.85,11.86-19.03,19.03,7.95-.41,16.08-4.59,21.23-10.63,1.34-1.57,5.33-7.04,4.09-8.98ZM2334.96,1571.53c-3.64.53-9.63,7.64-11.69,10.64-4.28,6.26-12.53,23.65-12.04,31,.23,3.49,1.59,2.11,3.41.25,5.8-5.92,22.75-30.53,22.85-38.16.02-1.49-.55-4.01-2.53-3.72ZM2653.06,1572.61c-1.74-1.77-5.93,1.26-7.38,2.47-6.71,5.6-13.95,20.66-16.57,29.01-1.11,3.54-2.24,7.08-1.83,10.85,1.13,1.16,5.88-4.98,6.72-5.97,4.51-5.32,8.56-11.4,12.14-17.38,1.96-3.26,10.01-15.83,6.91-18.99Z"/>
          <path class="st1" d="M2318.33,1491.36c19.77,18.84,9.44,49.9-4.78,68.65-20.56,27.11-52.94,47.4-85.58,56.35-2.65.73-9.05,1.41-10.74,2.73-1.1.86-2.36,3.35-3.11,4.66-8.39,14.59-15.08,30.28-23.47,44.9-4.98,8.68-10.65,19.9-22.58,18.25-1.68-.23-4.87-1.72-5.38-3.43-1.14-3.83,4.14-9.26,6.2-12.75,4.44-7.53,8.45-15.43,12.61-23.12,23.04-42.53,44.48-85.95,67.08-128.71,4.89-5.1,12.07-1.43,12.9,5.22.61,4.84-2.67,11.58-4.52,16.1-8.85,21.63-20.96,42.65-32.21,63.1-.11.36.41.34.76.25,28.68-7.44,67.6-41.15,81.7-66.97,32.58-59.67-38.18-50.36-73.14-40.48-30.46,8.61-90.18,32.96-87.06,72.01,1.47,18.36,22.72,26.19,38.59,27.19,2.38.15,14.64-.75,15.32-.29,3.72,2.52-7.99,4.7-9.14,4.86-21.26,3-51.88-5.35-57.36-29.02-11-47.6,61.45-78.28,97.46-87.29,24.53-6.14,66.5-11.2,86.44,7.8Z"/>
          <path class="st1" d="M2312.37,1425.47c-2.94,6.1-5.42,22.73,4.85,22.75,9.72.02,31.44-18.49,37.83-25.93,7.45-8.66,11.23-20.09,16.73-29.88,2.16-3.84,3.96-5.01,8.61-4.27,5.5.87,5.48,5.98,4.44,10.32,5.94-5.57,11.52-10.34,20.23-8.06,15.79,4.14,8.37,29.68-5.1,33.81-3.78,1.16-12.03.36-11.37-5.23.22-1.88,8.93-7.74,10.96-11.23,2.46-4.21,5.21-12.66-2.76-8.46-17.02,8.99-23.47,32.5-33,47.29-2.64,4.09-5.63,8.47-11.22,7.7-9.46-1.3-4.45-10.89-2.47-16.46-8.4,6.32-16.89,14.21-27.34,16.94-12.45,3.25-24.68-1.27-27.41-14.76-4.72-23.37,17.09-54.73,42.52-51.3,14.67,1.97,17.56,14.77,8.37,25.31-8.43,9.66-21.54,12.31-33.87,11.46ZM2315.93,1418.15c8.6-1.44,17.48-6.27,22.17-13.82,1.31-2.11,4.35-7.1-.14-6.92-7.85.33-19.41,13.65-22.03,20.74Z"/>
          <path class="st1" d="M2612.13,1541.53c15.53-2.2,13.88,21.34-.51,19.42-10.55-1.41-10.2-17.91.51-19.42Z"/>
        </g>
        <path class="st1" d="M2229.95,1399.23c2.88-5.12,9.51-17.41,19.89-36.87,8.85-16.63,20.08-40.73,39.91-72.3,11.51-18.31,22.03-33.73,31.54-46.27,5.69-7.54,10.95-11.52,15.79-11.93,2.78-.24,5.18.55,7.2,2.34,1.78,1.4,2.77,3.29,2.97,5.66.3,3.5-1.34,9.19-4.93,17.07-15.16,33.35-30.43,66.57-41.67,101.5-7.68,23.88-17.64,51.75-15.48,77.17.11,1.24.32,2.52.64,3.84.86,3.97,1.32,6.32,1.38,7.04.25,2.99-.64,5.87-2.69,8.63-1.76,2.54-3.87,3.91-6.34,4.12-2.89.25-5.4-1.25-7.54-4.49-1.76-2.44-2.84-5.98-3.24-10.62-2.48-29.15,13.84-88.5,55.18-178.04-23.13,29.36-44.87,70.7-71.46,124.02-5.86,11.6-10.84,19.55-14.93,23.84-4,4.18-7.96,6.44-11.87,6.77-3.92.33-6.94-1.12-9.09-4.36-1.43-2.16-2.27-4.73-2.53-7.72-2.19-25.75,6.54-67.59,32.42-125.51-9.5,11.5-18.44,24.66-26.83,39.48-24.69,43.65-40.73,90.39-55.95,137.95-3.69,11.52-8.57,17.54-14.65,18.06-1.55.13-2.89-.43-4.03-1.68-.9-.86-1.41-1.96-1.53-3.29-.17-1.96,1.28-7.48,4.35-16.56,18.75-57.57,43.38-114.42,76.25-165.41,1.34-2.08,2.69-4.15,4.06-6.2,11.32-16.94,19.2-27.99,23.63-33.14,4.63-5.27,8.6-8.05,11.9-8.33,2.06-.18,4.15.58,6.26,2.27,2.55,1.96,3.95,4.33,4.19,7.11.26,3.09-1.47,8.37-5.19,15.85-10.64,21.24-20.09,44.88-28.35,70.9-7.03,23.43-8.05,43.13-9.28,59.11Z"/>
      </g>
      <g>
        <path class="st4" d="M2913.8,903.74c-3.09,1.36-9.1,2.83-12.19,3.27-28.99,4.08-74.54-5.44-87.75-37.67.74-1.97,1.49-3.95,2.25-5.92,12.33-32.18,24.23-60.2,36.39-85.64.34-.7.66-1.39,1-2.09,2.35-1.8,4.79-3.56,7.33-5.33,7.74-5.37,15.99-10.36,24.51-14.96-2.44,8.03-4.6,15.85-6.44,23.34-29.86,19.36-54.52,45.76-51.83,79.44,2.67,33.44,41.96,44.8,64.73,46.23,1.76.11,6.05-.08,11.02-.29,3.45-.16,8.17-.37,10.97-.39Z"/>
        <path class="st4" d="M2960.59,725.31c-2.65,4.65-5.34,9.45-8.14,14.47-1.08,1.96-2.15,3.88-3.19,5.78-9.61,3.33-21.27,7.75-33.51,13.31,1.59-6.02,3.4-12.14,5.41-18.21.28-.76.53-1.52.81-2.28,13.74-5.49,27.02-9.87,38.62-13.06Z"/>
        <path class="st4" d="M3011.68,715.81c-1.02,2.38-2.07,4.84-3.16,7.4-.81,1.91-1.94,4.56-3.33,7.88-7.04,1.21-13.55,2.57-19.12,3.85.65-1.12,1.28-2.2,1.91-3.3.06-.1.11-.18.11-.19l.08-.15c2.57-4.47,5.2-8.97,7.93-13.56,5.16-.78,10.38-1.44,15.57-1.93Z"/>
        <path class="st4" d="M3097.11,843.43c-31.58,41.66-82.89,75.43-137.23,90.34-1.31.36-3.33.73-5.49,1.12-.18.03-.36.06-.53.1,2.57-6.01,5.23-12.2,7.95-18.6,47.8-14.83,107.77-69.2,129.1-108.26,15.65-28.67,18.02-50.18,7.02-63.95-10.93-13.71-32.83-17.5-55.65-16.98,1.75-4.1,3.46-8.14,5.15-12.12,23.33,1.54,44.19,7.59,57.69,20.46,29.44,28.05,16.49,75.59-8.01,107.9Z"/>
        <path class="st4" d="M3095.93,582.86c.29,5.18-3.06,13.89-8.56,26.27-4.29,9.7-21.48,50.1-42.99,100.75-.7,1.62-1.39,3.25-2.09,4.9-1.76,4.14-3.54,8.35-5.34,12.61-.71,1.65-1.42,3.32-2.14,4.99-1.31,3.09-2.64,6.2-3.97,9.34-23.86,56.18-50.53,119.04-72.6,170.65-4.42,10.36-8.66,20.27-12.64,29.57-17.21,40.11-29.83,69.17-33.04,75.62l-1.17,2.33c-6.78,13.73-14.45,29.27-31.26,27.94-2.49-.19-6.43-2.17-6.9-3.45-1.23-3.38,2.67-9.5,5.52-13.97,1.2-1.89,2.35-3.67,3.16-5.28,4.53-8.82,8.77-18.03,12.85-26.93,1.8-3.9,3.59-7.82,5.42-11.69,25.2-53.8,83.17-191.21,104.99-242.94,1.26-3.01,2.43-5.76,3.46-8.21.81-1.93,1.55-3.67,2.2-5.21.86-2.02,1.57-3.72,2.14-5.05,1.46-3.4,2.85-6.65,4.21-9.78.74-1.73,1.47-3.42,2.18-5.07.83-1.88,1.62-3.69,2.41-5.49,10.97-24.83,23.62-51.65,37.55-79.7l9.16-18.42-13.19,15.78c-18.03,21.58-36.27,47.9-57.41,82.84l-.18.29c-1.59,2.62-3.14,5.21-4.65,7.75-1.1,1.83-2.17,3.64-3.22,5.44-1.99,3.4-3.95,6.75-5.86,10.08-.05.06-.08.13-.15.23-1.42,2.44-2.85,4.92-4.27,7.41-1.1,1.94-2.22,3.9-3.33,5.88-15.26,26.9-30.54,55.21-42.62,77.78-9.89,18.23-18.24,30.77-24.86,37.31-6.2,6.12-12.25,9.39-17.93,9.7-5.44.31-9.47-1.76-12.32-6.35-1.99-3.2-3.11-7.06-3.35-11.46-1.04-18.71,1.67-41.5,8.06-67.76.05-.26.11-.52.18-.78.47-1.91.95-3.85,1.47-5.81,1.89-7.35,4.1-14.97,6.54-22.77.31-.99.61-1.97.94-2.98.39-1.23.79-2.46,1.21-3.71,9.66-29.49,23-61.96,39.69-96.55l7.74-16.09-11.75,13.43c-15.93,18.18-31.24,39.35-45.52,62.97-11.9,19.65-23.02,40.27-33.96,62.95-.55,1.15-1.1,2.3-1.65,3.45-1.12,2.33-2.22,4.68-3.32,7.04-11.07,23.68-21.98,49.6-33.21,78.96-.03.08-.06.15-.08.23-.97,2.49-1.91,5-2.85,7.48-8.22,21.71-15.75,42.81-22.13,60.91-6.13,17.38-13.66,26.43-22.37,26.92-1.78.08-3.2-.57-4.61-2.19-.99-1-1.52-2.27-1.62-3.84-.08-1.57.79-7.01,7.67-25.62,36.18-101.05,80.19-189.72,130.85-263.52,2.25-3.29,4.53-6.56,6.85-9.81,18.91-26.63,32.24-44.22,39.59-52.27,7.25-7.8,13.31-11.88,17.98-12.14,2.72-.16,5.44.94,8.37,3.4,3.51,2.88,5.33,6.13,5.55,9.97.16,3.12-1.23,9.84-8.85,24.12-17.03,31.68-32.71,67.34-46.62,106.01-.39,1.07-.76,2.15-1.15,3.22-.53,1.51-1.07,3.01-1.6,4.55-.19.57-.37,1.13-.55,1.7-2.07,6.3-3.9,12.64-5.5,18.84-.16.62-.32,1.25-.47,1.86-.52,2.02-1,4.03-1.46,6.02-5.33,23.02-7.43,43.27-9.31,61.35l-1.76,16.8,5.65-9.36c4.79-7.95,15.89-27.18,33.94-58.77,3.56-6.23,7.4-13.24,11.48-20.67,1.31-2.38,2.65-4.82,4.01-7.33,1.13-2.04,2.28-4.13,3.46-6.26.21-.37.42-.76.63-1.13,3.63-6.52,7.09-12.66,10.52-18.58,1.12-1.96,2.23-3.9,3.35-5.81.52-.89,1.02-1.76,1.54-2.64,10.68-18.26,21.43-35.43,32.87-52.54,19.38-28.93,37.23-53.55,53.08-73.21,9.06-11.31,17.25-17.25,24.36-17.64,3.84-.23,7.02.91,9.84,3.56,2.3,1.91,3.5,4.4,3.67,7.58Z"/>
      </g>
      <g>
        <path class="st1" d="M3418.54,362.87c-3.09,1.36-9.1,2.83-12.19,3.27-28.99,4.08-74.54-5.44-87.75-37.67.74-1.97,1.49-3.95,2.25-5.92,12.33-32.18,24.23-60.2,36.39-85.64.34-.7.66-1.39,1-2.09,2.35-1.8,4.79-3.56,7.33-5.33,7.74-5.37,15.99-10.36,24.51-14.96-2.44,8.03-4.6,15.85-6.44,23.34-29.86,19.36-54.52,45.76-51.83,79.44,2.67,33.44,41.96,44.8,64.73,46.23,1.76.11,6.05-.08,11.02-.29,3.45-.16,8.17-.37,10.97-.39Z"/>
        <path class="st1" d="M3465.34,184.44c-2.65,4.65-5.34,9.45-8.14,14.47-1.08,1.96-2.15,3.88-3.19,5.78-9.61,3.33-21.27,7.75-33.51,13.31,1.59-6.02,3.4-12.14,5.41-18.21.28-.76.53-1.52.81-2.28,13.74-5.49,27.02-9.87,38.62-13.06Z"/>
        <path class="st1" d="M3516.42,174.94c-1.02,2.38-2.07,4.84-3.16,7.4-.81,1.91-1.94,4.56-3.33,7.88-7.04,1.21-13.55,2.57-19.12,3.85.65-1.12,1.28-2.2,1.91-3.3.06-.1.11-.18.11-.19l.08-.15c2.57-4.47,5.2-8.97,7.93-13.56,5.16-.78,10.38-1.44,15.57-1.93Z"/>
        <path class="st1" d="M3601.85,302.55c-31.58,41.66-82.89,75.43-137.23,90.34-1.31.36-3.33.73-5.49,1.12-.18.03-.36.06-.53.1,2.57-6.01,5.23-12.2,7.95-18.6,47.8-14.83,107.77-69.2,129.1-108.26,15.65-28.67,18.02-50.18,7.02-63.95-10.93-13.71-32.83-17.5-55.65-16.98,1.75-4.1,3.46-8.14,5.15-12.12,23.33,1.54,44.19,7.59,57.69,20.46,29.44,28.05,16.49,75.59-8.01,107.9Z"/>
        <path class="st1" d="M3600.67,41.98c.29,5.18-3.06,13.89-8.56,26.27-4.29,9.7-21.48,50.1-42.99,100.75-.7,1.62-1.39,3.25-2.09,4.9-1.76,4.14-3.54,8.35-5.34,12.61-.71,1.65-1.42,3.32-2.14,4.99-1.31,3.09-2.64,6.2-3.97,9.34-23.86,56.18-50.53,119.04-72.6,170.65-4.42,10.36-8.66,20.27-12.64,29.57-17.21,40.11-29.83,69.17-33.04,75.62l-1.17,2.33c-6.78,13.73-14.45,29.27-31.26,27.94-2.49-.19-6.43-2.17-6.9-3.45-1.23-3.38,2.67-9.5,5.52-13.97,1.2-1.89,2.35-3.67,3.16-5.28,4.53-8.82,8.77-18.03,12.85-26.93,1.8-3.9,3.59-7.82,5.42-11.69,25.2-53.8,83.17-191.21,104.99-242.94,1.26-3.01,2.43-5.76,3.46-8.21.81-1.93,1.55-3.67,2.2-5.21.86-2.02,1.57-3.72,2.14-5.05,1.46-3.4,2.85-6.65,4.21-9.78.74-1.73,1.47-3.42,2.18-5.07.83-1.88,1.62-3.69,2.41-5.49,10.97-24.83,23.62-51.65,37.55-79.7l9.16-18.42-13.19,15.78c-18.03,21.58-36.27,47.9-57.41,82.84l-.18.29c-1.59,2.62-3.14,5.21-4.65,7.75-1.1,1.83-2.17,3.64-3.22,5.44-1.99,3.4-3.95,6.75-5.86,10.08-.05.06-.08.13-.15.23-1.42,2.44-2.85,4.92-4.27,7.41-1.1,1.94-2.22,3.9-3.33,5.88-15.26,26.9-30.54,55.21-42.62,77.78-9.89,18.23-18.24,30.77-24.86,37.31-6.2,6.12-12.25,9.39-17.93,9.7-5.44.31-9.47-1.76-12.32-6.35-1.99-3.2-3.11-7.06-3.35-11.46-1.04-18.71,1.67-41.5,8.06-67.76.05-.26.11-.52.18-.78.47-1.91.95-3.85,1.47-5.81,1.89-7.35,4.1-14.97,6.54-22.77.31-.99.61-1.97.94-2.98.39-1.23.79-2.46,1.21-3.71,9.66-29.49,23-61.96,39.69-96.55l7.74-16.09-11.75,13.43c-15.93,18.18-31.24,39.35-45.52,62.97-11.9,19.65-23.02,40.27-33.96,62.95-.55,1.15-1.1,2.3-1.65,3.45-1.12,2.33-2.22,4.68-3.32,7.04-11.07,23.68-21.98,49.6-33.21,78.96-.03.08-.06.15-.08.23-.97,2.49-1.91,5-2.85,7.48-8.22,21.71-15.75,42.81-22.13,60.91-6.13,17.38-13.66,26.43-22.37,26.92-1.78.08-3.2-.57-4.61-2.19-.99-1-1.52-2.27-1.62-3.84-.08-1.57.79-7.01,7.67-25.62,36.18-101.05,80.19-189.72,130.85-263.52,2.25-3.29,4.53-6.56,6.85-9.81,18.91-26.63,32.24-44.22,39.59-52.27,7.25-7.8,13.31-11.88,17.98-12.14,2.72-.16,5.44.94,8.37,3.4,3.51,2.88,5.33,6.13,5.55,9.97.16,3.12-1.23,9.84-8.85,24.12-17.03,31.68-32.71,67.34-46.62,106.01-.39,1.07-.76,2.15-1.15,3.22-.53,1.51-1.07,3.01-1.6,4.55-.19.57-.37,1.13-.55,1.7-2.07,6.3-3.9,12.64-5.5,18.84-.16.62-.32,1.25-.47,1.86-.52,2.02-1,4.03-1.46,6.02-5.33,23.02-7.43,43.27-9.31,61.35l-1.76,16.8,5.65-9.36c4.79-7.95,15.89-27.18,33.94-58.77,3.56-6.23,7.4-13.24,11.48-20.67,1.31-2.38,2.65-4.82,4.01-7.33,1.13-2.04,2.28-4.13,3.46-6.26.21-.37.42-.76.63-1.13,3.63-6.52,7.09-12.66,10.52-18.58,1.12-1.96,2.23-3.9,3.35-5.81.52-.89,1.02-1.76,1.54-2.64,10.68-18.26,21.43-35.43,32.87-52.54,19.38-28.93,37.23-53.55,53.08-73.21,9.06-11.31,17.25-17.25,24.36-17.64,3.84-.23,7.02.91,9.84,3.56,2.3,1.91,3.5,4.4,3.67,7.58Z"/>
      </g>
      <g>
        <path class="st2" d="M2485.17,362.87c-3.09,1.36-9.1,2.83-12.19,3.27-28.99,4.08-74.54-5.44-87.75-37.67.74-1.97,1.49-3.95,2.25-5.92,12.33-32.18,24.23-60.2,36.39-85.64.34-.7.66-1.39,1-2.09,2.35-1.8,4.79-3.56,7.33-5.33,7.74-5.37,15.99-10.36,24.51-14.96-2.44,8.03-4.6,15.85-6.44,23.34-29.86,19.36-54.52,45.76-51.83,79.44,2.67,33.44,41.96,44.8,64.73,46.23,1.76.11,6.05-.08,11.02-.29,3.45-.16,8.17-.37,10.97-.39Z"/>
        <path class="st2" d="M2531.96,184.44c-2.65,4.65-5.34,9.45-8.14,14.47-1.08,1.96-2.15,3.88-3.19,5.78-9.61,3.33-21.27,7.75-33.51,13.31,1.59-6.02,3.4-12.14,5.41-18.21.28-.76.53-1.52.81-2.28,13.74-5.49,27.02-9.87,38.62-13.06Z"/>
        <path class="st2" d="M2583.05,174.94c-1.02,2.38-2.07,4.84-3.16,7.4-.81,1.91-1.94,4.56-3.33,7.88-7.04,1.21-13.55,2.57-19.12,3.85.65-1.12,1.28-2.2,1.91-3.3.06-.1.11-.18.11-.19l.08-.15c2.57-4.47,5.2-8.97,7.93-13.56,5.16-.78,10.38-1.44,15.57-1.93Z"/>
        <path class="st2" d="M2668.48,302.55c-31.58,41.66-82.89,75.43-137.23,90.34-1.31.36-3.33.73-5.49,1.12-.18.03-.36.06-.53.1,2.57-6.01,5.23-12.2,7.95-18.6,47.8-14.83,107.77-69.2,129.1-108.26,15.65-28.67,18.02-50.18,7.02-63.95-10.93-13.71-32.83-17.5-55.65-16.98,1.75-4.1,3.46-8.14,5.15-12.12,23.33,1.54,44.19,7.59,57.69,20.46,29.44,28.05,16.49,75.59-8.01,107.9Z"/>
        <path class="st2" d="M2667.3,41.98c.29,5.18-3.06,13.89-8.56,26.27-4.29,9.7-21.48,50.1-42.99,100.75-.7,1.62-1.39,3.25-2.09,4.9-1.76,4.14-3.54,8.35-5.34,12.61-.71,1.65-1.42,3.32-2.14,4.99-1.31,3.09-2.64,6.2-3.97,9.34-23.86,56.18-50.53,119.04-72.6,170.65-4.42,10.36-8.66,20.27-12.64,29.57-17.21,40.11-29.83,69.17-33.04,75.62l-1.17,2.33c-6.78,13.73-14.45,29.27-31.26,27.94-2.49-.19-6.43-2.17-6.9-3.45-1.23-3.38,2.67-9.5,5.52-13.97,1.2-1.89,2.35-3.67,3.16-5.28,4.53-8.82,8.77-18.03,12.85-26.93,1.8-3.9,3.59-7.82,5.42-11.69,25.2-53.8,83.17-191.21,104.99-242.94,1.26-3.01,2.43-5.76,3.46-8.21.81-1.93,1.55-3.67,2.2-5.21.86-2.02,1.57-3.72,2.14-5.05,1.46-3.4,2.85-6.65,4.21-9.78.74-1.73,1.47-3.42,2.18-5.07.83-1.88,1.62-3.69,2.41-5.49,10.97-24.83,23.62-51.65,37.55-79.7l9.16-18.42-13.19,15.78c-18.03,21.58-36.27,47.9-57.41,82.84l-.18.29c-1.59,2.62-3.14,5.21-4.65,7.75-1.1,1.83-2.17,3.64-3.22,5.44-1.99,3.4-3.95,6.75-5.86,10.08-.05.06-.08.13-.15.23-1.42,2.44-2.85,4.92-4.27,7.41-1.1,1.94-2.22,3.9-3.33,5.88-15.26,26.9-30.54,55.21-42.62,77.78-9.89,18.23-18.24,30.77-24.86,37.31-6.2,6.12-12.25,9.39-17.93,9.7-5.44.31-9.47-1.76-12.32-6.35-1.99-3.2-3.11-7.06-3.35-11.46-1.04-18.71,1.67-41.5,8.06-67.76.05-.26.11-.52.18-.78.47-1.91.95-3.85,1.47-5.81,1.89-7.35,4.1-14.97,6.54-22.77.31-.99.61-1.97.94-2.98.39-1.23.79-2.46,1.21-3.71,9.66-29.49,23-61.96,39.69-96.55l7.74-16.09-11.75,13.43c-15.93,18.18-31.24,39.35-45.52,62.97-11.9,19.65-23.02,40.27-33.96,62.95-.55,1.15-1.1,2.3-1.65,3.45-1.12,2.33-2.22,4.68-3.32,7.04-11.07,23.68-21.98,49.6-33.21,78.96-.03.08-.06.15-.08.23-.97,2.49-1.91,5-2.85,7.48-8.22,21.71-15.75,42.81-22.13,60.91-6.13,17.38-13.66,26.43-22.37,26.92-1.78.08-3.2-.57-4.61-2.19-.99-1-1.52-2.27-1.62-3.84-.08-1.57.79-7.01,7.67-25.62,36.18-101.05,80.19-189.72,130.85-263.52,2.25-3.29,4.53-6.56,6.85-9.81,18.91-26.63,32.24-44.22,39.59-52.27,7.25-7.8,13.31-11.88,17.98-12.14,2.72-.16,5.44.94,8.37,3.4,3.51,2.88,5.33,6.13,5.55,9.97.16,3.12-1.23,9.84-8.85,24.12-17.03,31.68-32.71,67.34-46.62,106.01-.39,1.07-.76,2.15-1.15,3.22-.53,1.51-1.07,3.01-1.6,4.55-.19.57-.37,1.13-.55,1.7-2.07,6.3-3.9,12.64-5.5,18.84-.16.62-.32,1.25-.47,1.86-.52,2.02-1,4.03-1.46,6.02-5.33,23.02-7.43,43.27-9.31,61.35l-1.76,16.8,5.65-9.36c4.79-7.95,15.89-27.18,33.94-58.77,3.56-6.23,7.4-13.24,11.48-20.67,1.31-2.38,2.65-4.82,4.01-7.33,1.13-2.04,2.28-4.13,3.46-6.26.21-.37.42-.76.63-1.13,3.63-6.52,7.09-12.66,10.52-18.58,1.12-1.96,2.23-3.9,3.35-5.81.52-.89,1.02-1.76,1.54-2.64,10.68-18.26,21.43-35.43,32.87-52.54,19.38-28.93,37.23-53.55,53.08-73.21,9.06-11.31,17.25-17.25,24.36-17.64,3.84-.23,7.02.91,9.84,3.56,2.3,1.91,3.5,4.4,3.67,7.58Z"/>
      </g>
    </g>
  </g>
  <g id="Capa_2">
    <g>
      <path class="st4" d="M903.38,742.96c-6.68,2.94-19.65,6.12-26.33,7.06-62.64,8.81-161.05-11.75-189.59-81.38,1.61-4.27,3.22-8.53,4.86-12.8,26.65-69.53,52.35-130.06,78.62-185.04.73-1.5,1.43-3.01,2.17-4.51,5.07-3.88,10.35-7.69,15.84-11.51,16.72-11.61,34.55-22.38,52.95-32.31-5.28,17.35-9.93,34.24-13.92,50.43-64.52,41.83-117.79,98.87-111.98,171.65,5.77,72.25,90.65,96.8,139.86,99.88,3.81.24,13.08-.17,23.82-.63,7.45-.35,17.66-.8,23.71-.84Z"/>
      <path class="st4" d="M1004.49,357.46c-5.74,10.04-11.54,20.42-17.59,31.27-2.34,4.23-4.65,8.39-6.89,12.49-20.77,7.2-45.95,16.75-72.39,28.75,3.43-13.01,7.34-26.23,11.68-39.34.6-1.64,1.15-3.29,1.75-4.93,29.69-11.86,58.37-21.33,83.45-28.22Z"/>
      <path class="st4" d="M1114.87,336.93c-2.2,5.14-4.48,10.46-6.82,15.98-1.75,4.13-4.2,9.86-7.2,17.03-15.21,2.62-29.27,5.56-41.3,8.32,1.4-2.41,2.76-4.76,4.13-7.13.14-.21.25-.38.25-.42l.18-.31c5.56-9.65,11.23-19.37,17.14-29.31,11.16-1.68,22.42-3.11,33.64-4.16Z"/>
      <path class="st4" d="M1299.45,612.65c-68.23,90.02-179.1,162.97-296.5,195.18-2.83.77-7.2,1.57-11.86,2.41-.38.07-.77.14-1.15.21,5.56-12.97,11.3-26.37,17.17-40.18,103.27-32.03,232.85-149.51,278.94-233.9,33.82-61.94,38.92-108.42,15.18-138.18-23.61-29.62-70.92-37.81-120.24-36.69,3.78-8.85,7.48-17.59,11.12-26.19,50.4,3.32,95.48,16.4,124.64,44.21,63.62,60.61,35.64,163.32-17.31,233.13Z"/>
      <path class="st4" d="M1296.9,49.66c.63,11.19-6.61,30.01-18.5,56.76-9.27,20.95-46.41,108.24-92.89,217.67-1.5,3.5-3.01,7.03-4.51,10.6-3.81,8.95-7.66,18.05-11.54,27.24-1.54,3.57-3.08,7.17-4.62,10.77-2.83,6.68-5.7,13.39-8.57,20.18-51.55,121.39-109.18,257.19-156.85,368.72-9.55,22.38-18.71,43.79-27.31,63.9-37.18,86.66-64.45,149.44-71.38,163.39l-2.52,5.04c-14.65,29.66-31.23,63.23-67.53,60.36-5.39-.42-13.88-4.69-14.9-7.45-2.66-7.31,5.77-20.53,11.93-30.18,2.59-4.09,5.07-7.94,6.82-11.4,9.79-19.06,18.95-38.96,27.77-58.19,3.88-8.43,7.76-16.89,11.72-25.25,54.45-116.25,179.69-413.13,226.83-524.91,2.73-6.5,5.25-12.45,7.48-17.73,1.75-4.16,3.36-7.94,4.76-11.26,1.85-4.37,3.39-8.04,4.62-10.91,3.15-7.34,6.16-14.37,9.09-21.12,1.61-3.74,3.18-7.38,4.72-10.95,1.78-4.06,3.5-7.97,5.21-11.86,23.71-53.65,51.02-111.6,81.14-172.21l19.79-39.8-28.5,34.1c-38.96,46.62-78.37,103.48-124.05,178.99l-.38.63c-3.43,5.67-6.78,11.26-10.04,16.75-2.38,3.95-4.69,7.87-6.96,11.75-4.3,7.34-8.53,14.58-12.66,21.79-.11.14-.18.28-.32.49-3.08,5.28-6.16,10.63-9.23,16.02-2.38,4.2-4.79,8.43-7.2,12.7-32.98,58.12-65.99,119.29-92.08,168.04-21.37,39.38-39.41,66.48-53.72,80.61-13.39,13.22-26.47,20.28-38.75,20.95-11.75.66-20.46-3.81-26.61-13.71-4.3-6.92-6.72-15.25-7.24-24.76-2.24-40.43,3.6-89.67,17.42-146.4.11-.56.25-1.12.39-1.68,1.01-4.13,2.06-8.32,3.18-12.56,4.09-15.88,8.85-32.35,14.13-49.21.66-2.13,1.33-4.27,2.03-6.44.84-2.66,1.71-5.32,2.62-8.01,20.88-63.72,49.7-133.88,85.75-208.61l16.72-34.76-25.39,29.03c-34.41,39.27-67.5,85.02-98.34,136.04-25.71,42.46-49.73,87.01-73.37,136.01-1.19,2.48-2.38,4.97-3.57,7.45-2.41,5.04-4.79,10.11-7.17,15.21-23.92,51.17-47.49,107.16-71.76,170.6-.07.17-.14.31-.18.49-2.1,5.39-4.13,10.81-6.16,16.16-17.77,46.9-34.03,92.5-47.81,131.6-13.25,37.56-29.52,57.11-48.33,58.16-3.85.18-6.92-1.22-9.97-4.72-2.13-2.17-3.29-4.9-3.5-8.29-.18-3.39,1.71-15.14,16.58-55.36,78.16-218.34,173.25-409.92,282.72-569.36,4.86-7.1,9.79-14.16,14.79-21.19,40.85-57.53,69.67-95.55,85.54-112.93,15.67-16.86,28.75-25.67,38.85-26.23,5.88-.35,11.75,2.03,18.08,7.34,7.59,6.23,11.51,13.25,12,21.54.35,6.75-2.66,21.26-19.13,52.11-36.79,68.44-70.68,145.49-100.72,229.04-.84,2.31-1.64,4.65-2.48,6.96-1.15,3.25-2.31,6.51-3.46,9.83-.42,1.22-.8,2.45-1.19,3.67-4.48,13.6-8.43,27.31-11.89,40.71-.35,1.33-.7,2.69-1.01,4.02-1.12,4.37-2.17,8.71-3.15,13.01-11.51,49.73-16.05,93.48-20.11,132.55l-3.81,36.3,12.21-20.21c10.35-17.17,34.34-58.72,73.34-126.99,7.69-13.46,15.98-28.61,24.8-44.66,2.83-5.14,5.74-10.42,8.67-15.84,2.45-4.41,4.93-8.92,7.48-13.53.46-.8.91-1.64,1.36-2.45,7.83-14.09,15.32-27.35,22.73-40.15,2.41-4.23,4.83-8.43,7.24-12.56,1.12-1.92,2.2-3.81,3.32-5.7,23.08-39.45,46.3-76.56,71.03-113.52,41.86-62.5,80.44-115.69,114.68-158.18,19.59-24.45,37.28-37.28,52.63-38.12,8.29-.49,15.18,1.96,21.26,7.69,4.97,4.13,7.55,9.51,7.94,16.37Z"/>
    </g>
  </g>
</svg>